<svg width="32" height="32" fill="none" xmlns="http://www.w3.org/2000/svg"><g clip-path="url()" fill="#0883D1"><path d="M16 11.636A4.367 4.367 0 0120.364 16 4.367 4.367 0 0116 20.364 4.367 4.367 0 0111.636 16 4.367 4.367 0 0116 11.636z"/><path d="M16 5.09c7.273 0 13.484 4.525 16 10.91-2.516 6.386-8.727 10.91-16 10.91-7.28 0-13.484-4.524-16-10.91C2.516 9.615 8.72 5.09 16 5.09zm0 18.183A7.275 7.275 0 0023.273 16 7.275 7.275 0 0016 8.727 7.275 7.275 0 008.727 16 7.275 7.275 0 0016 23.273z"/></g></svg>