<svg width="32" height="32" fill="none" xmlns="http://www.w3.org/2000/svg"><g clip-path="url()" fill="#0883D1"><path d="M15.757 10.932l4.58 4.58.022-.239a4.366 4.366 0 00-4.363-4.363l-.24.022z"/><path d="M15.996 8.002a7.274 7.274 0 017.271 7.271c0 .938-.189 1.832-.516 2.654l4.254 4.253A17.269 17.269 0 0032 15.273C29.477 8.889 23.275 4.366 15.996 4.366c-2.036 0-3.984.364-5.795 1.018l3.141 3.134a7.308 7.308 0 012.654-.516zM1.454 4.04L4.77 7.354l.661.661A17.224 17.224 0 000 15.273C2.516 21.657 8.725 26.18 15.996 26.18c2.254 0 4.407-.437 6.377-1.23l.618.619 4.24 4.246 1.853-1.847L3.308 2.185 1.454 4.039zm8.042 8.034l2.247 2.246c-.066.313-.11.626-.11.953a4.366 4.366 0 004.363 4.363c.328 0 .64-.044.946-.11l2.246 2.247c-.967.48-2.043.771-3.192.771a7.274 7.274 0 01-7.27-7.271c0-1.149.29-2.225.77-3.2z"/></g></svg>