<?xml version="1.0" encoding="utf-8"?><svg xmlns="http://www.w3.org/2000/svg" xmlns:xlink="http://www.w3.org/1999/xlink"><symbol fill="none" viewBox="0 0 22 22" id="Shape" xmlns="http://www.w3.org/2000/svg"><path clip-rule="evenodd" d="M21 15.92v3a2 2 0 01-2.18 2 19.79 19.79 0 01-8.63-3.07 19.5 19.5 0 01-6-6 19.79 19.79 0 01-3.07-8.67A2 2 0 013.11 1h3a2 2 0 012 1.72c.127.96.361 1.903.7 2.81a2 2 0 01-.45 2.11L7.09 8.91a16 16 0 006 6l1.27-1.27a2 2 0 012.11-.45c.907.339 1.85.573 2.81.7A2 2 0 0121 15.92z" stroke="#515151" stroke-width="2" stroke-linecap="round" stroke-linejoin="round"/></symbol><symbol fill="none" viewBox="0 0 24 24" id="list" xmlns="http://www.w3.org/2000/svg"><path d="M8 6h13M8 12h13M8 18h13M4 6H3M4 12H3M4 18H3" stroke="#515151" stroke-width="2" stroke-linecap="round" stroke-linejoin="round"/></symbol><symbol fill="none" viewBox="0 0 24 24" id="package" xmlns="http://www.w3.org/2000/svg"><path clip-rule="evenodd" d="M12.89 1.45l8 4A2 2 0 0122 7.24v9.53a2 2 0 01-1.11 1.79l-8 4a2 2 0 01-1.79 0l-8-4a2 2 0 01-1.1-1.8V7.24a2 2 0 011.11-1.79l8-4a2 2 0 011.78 0z" stroke="#515151" stroke-width="2" stroke-linecap="round" stroke-linejoin="round"/><path d="M2.32 6.16L12 11l9.68-4.84M12 22.76V11M7 3.5l10 5" stroke="#515151" stroke-width="2" stroke-linecap="round" stroke-linejoin="round"/></symbol></svg>