<svg width="25" height="25" viewBox="0 0 25 25" fill="none" xmlns="http://www.w3.org/2000/svg">
<path d="M18.5565 8.85339C18.5565 7.26209 17.9244 5.73597 16.7992 4.61075C15.6739 3.48553 14.1478 2.85339 12.5565 2.85339C10.9652 2.85339 9.4391 3.48553 8.31388 4.61075C7.18866 5.73597 6.55652 7.26209 6.55652 8.85339C6.55652 15.8534 3.55652 17.8534 3.55652 17.8534H21.5565C21.5565 17.8534 18.5565 15.8534 18.5565 8.85339Z" stroke="#F2F2F2" stroke-width="2" stroke-linecap="round" stroke-linejoin="round"/>
<path d="M14.2865 21.8534C14.1107 22.1565 13.8584 22.408 13.5548 22.5829C13.2511 22.7578 12.9069 22.8498 12.5565 22.8498C12.2062 22.8498 11.8619 22.7578 11.5583 22.5829C11.2547 22.408 11.0023 22.1565 10.8265 21.8534" stroke="#F2F2F2" stroke-width="2" stroke-linecap="round" stroke-linejoin="round"/>
</svg>
